<svg width="21" height="24" viewBox="0 0 21 24" fill="none" xmlns="http://www.w3.org/2000/svg">
<path opacity="0.8" d="M15.9728 11.065C15.4428 10.0043 14.6298 9.1108 13.6237 8.4834C12.6176 7.85599 11.4575 7.51911 10.2718 7.51001C9.08593 7.51904 7.92568 7.85588 6.91936 8.48328C5.91305 9.11069 5.09987 10.0042 4.56977 11.065C4.5239 11.1557 4.5 11.2559 4.5 11.3575C4.5 11.4591 4.5239 11.5593 4.56977 11.65C5.09963 12.7106 5.91247 13.604 6.91842 14.2314C7.92437 14.8588 9.08424 15.1957 10.2698 15.205C11.4553 15.1956 12.6151 14.8586 13.621 14.2312C14.627 13.6038 15.4398 12.7105 15.9698 11.65C16.0161 11.5596 16.0405 11.4595 16.041 11.3579C16.0416 11.2562 16.0182 11.1559 15.9728 11.065ZM10.2728 14.243C9.70185 14.2434 9.14363 14.0745 8.66875 13.7575C8.19386 13.4406 7.82365 12.99 7.60493 12.4626C7.38622 11.9352 7.32884 11.3548 7.44006 10.7948C7.55127 10.2348 7.82607 9.72043 8.22971 9.31665C8.63334 8.91288 9.14767 8.63789 9.70762 8.52649C10.2676 8.41508 10.848 8.47226 11.3754 8.69079C11.9029 8.90932 12.3537 9.27938 12.6707 9.75415C12.9878 10.2289 13.157 10.7871 13.1568 11.358C13.1565 12.1231 12.8525 12.8567 12.3115 13.3977C11.7705 13.9387 11.0368 14.2427 10.2718 14.243H10.2728ZM10.2728 9.43301C10.1011 9.43544 9.93059 9.46101 9.76577 9.50901C9.90262 9.69377 9.96853 9.92154 9.9515 10.1508C9.93447 10.3801 9.83563 10.5957 9.673 10.7582C9.51036 10.9207 9.29475 11.0194 9.06545 11.0362C8.83615 11.0531 8.60843 10.987 8.42377 10.85C8.31856 11.2374 8.33747 11.648 8.47783 12.0241C8.6182 12.4001 8.87297 12.7227 9.20627 12.9464C9.53957 13.1701 9.93463 13.2836 10.3358 13.2711C10.7371 13.2585 11.1242 13.1204 11.4428 12.8763C11.7615 12.6321 11.9955 12.2942 12.112 11.9101C12.2286 11.526 12.2217 11.115 12.0924 10.7349C11.9631 10.3549 11.7179 10.025 11.3913 9.79164C11.0647 9.55827 10.6732 9.43319 10.2718 9.43401L10.2728 9.43301Z" fill="#2662F0"/>
<path d="M10.5 20.109C15.7467 20.109 20 16.3044 20 11.611C20 6.91772 15.7467 3.11304 10.5 3.11304C5.25329 3.11304 1 6.91772 1 11.611C1 16.3044 5.25329 20.109 10.5 20.109Z" stroke="#5181F3" stroke-width="2"/>
<path d="M12 0.113007H5V5.11301H12V0.113007Z" fill="white"/>
<path d="M4.69282 6.70074L1.44101 3.33664L5.16948 2.98631L4.69282 6.70074Z" fill="#5181F3"/>
<path d="M4.59396 3.54257L2.52348 3.73712L4.32926 5.60525L4.59396 3.54257ZM5.74492 2.43003L5.05629 7.79622L0.358451 2.93615L5.74492 2.43003Z" fill="#5181F3"/>
<path d="M17 17.1101H10V23.1101H17V17.1101Z" fill="white"/>
<path d="M16.4302 15.3002L19.682 18.6643L15.9536 19.0147L16.4302 15.3002Z" fill="#5181F3"/>
<path d="M16.5291 18.4584L18.5996 18.2639L16.7938 16.3957L16.5291 18.4584ZM15.3781 19.5709L16.0668 14.2048L20.7646 19.0648L15.3781 19.5709Z" fill="#5181F3"/>
</svg>
